<svg width="358" height="262" viewBox="0 0 358 262" fill="none" xmlns="http://www.w3.org/2000/svg">
<mask id="mask0_2_456" style="mask-type:alpha" maskUnits="userSpaceOnUse" x="125" y="0" width="118" height="85">
<path d="M243 26C243 58.5848 216.585 85 184 85C151.415 85 125 58.5848 125 26C125 -6.58482 146.915 0.999979 179.5 0.999979C212.085 0.999979 243 -6.58482 243 26Z" fill="url(#paint0_linear_2_456)"/>
</mask>
<g mask="url(#mask0_2_456)">
<g filter="url(#filter0_f_2_456)">
<path fill-rule="evenodd" clip-rule="evenodd" d="M79.5023 176.997C79.3351 176.999 79.1676 177 79 177C55.2518 177 36 157.748 36 134C36 110.252 55.2518 91 79 91C99.4703 91 116.6 105.304 120.938 124.462L135.5 106L181 91H230.5V91.0028C230.666 91.0009 230.833 91 231 91C254.748 91 274 110.252 274 134C274 157.748 254.748 177 231 177C230.833 177 230.666 176.999 230.5 176.997V177H79.5L79.5023 176.997Z" fill="#E18700"/>
</g>
</g>
<g filter="url(#filter1_bd_2_456)">
<mask id="path-3-inside-1_2_456" fill="white">
<path fill-rule="evenodd" clip-rule="evenodd" d="M297.563 196.351C297.683 196.352 297.804 196.353 297.924 196.353C315.087 196.353 329 182.44 329 165.277C329 148.115 315.087 134.202 297.924 134.202C297.804 134.202 297.683 134.202 297.563 134.204V134.202H289.535C289.825 132.075 289.975 129.904 289.975 127.697C289.975 101.355 268.62 80 242.277 80C215.935 80 194.58 101.355 194.58 127.697C194.58 130.183 194.77 132.624 195.136 135.007C192.868 134.48 190.504 134.202 188.076 134.202C170.913 134.202 157 148.115 157 165.277C157 182.44 170.913 196.353 188.076 196.353C188.197 196.353 188.318 196.352 188.439 196.351L188.437 196.353H297.563V196.351Z"/>
</mask>
<path fill-rule="evenodd" clip-rule="evenodd" d="M297.563 196.351C297.683 196.352 297.804 196.353 297.924 196.353C315.087 196.353 329 182.44 329 165.277C329 148.115 315.087 134.202 297.924 134.202C297.804 134.202 297.683 134.202 297.563 134.204V134.202H289.535C289.825 132.075 289.975 129.904 289.975 127.697C289.975 101.355 268.62 80 242.277 80C215.935 80 194.58 101.355 194.58 127.697C194.58 130.183 194.77 132.624 195.136 135.007C192.868 134.48 190.504 134.202 188.076 134.202C170.913 134.202 157 148.115 157 165.277C157 182.44 170.913 196.353 188.076 196.353C188.197 196.353 188.318 196.352 188.439 196.351L188.437 196.353H297.563V196.351Z" fill="url(#paint1_linear_2_456)" shape-rendering="crispEdges"/>
<path d="M297.563 196.351L297.586 194.351C297.052 194.345 296.537 194.553 296.157 194.929C295.777 195.304 295.563 195.816 295.563 196.351H297.563ZM297.563 134.204H295.563C295.563 134.738 295.777 135.25 296.157 135.626C296.537 136.002 297.051 136.21 297.586 136.204L297.563 134.204ZM297.563 134.202H299.563C299.563 133.097 298.668 132.202 297.563 132.202V134.202ZM289.535 134.202L287.553 133.931C287.475 134.504 287.649 135.082 288.028 135.517C288.408 135.952 288.957 136.202 289.535 136.202V134.202ZM195.136 135.007L194.684 136.955C195.33 137.106 196.009 136.925 196.496 136.474C196.983 136.023 197.214 135.359 197.113 134.703L195.136 135.007ZM188.439 196.351L190.008 197.59C190.486 196.985 190.573 196.16 190.233 195.468C189.893 194.777 189.186 194.342 188.416 194.351L188.439 196.351ZM188.437 196.353L186.867 195.114C186.392 195.715 186.303 196.535 186.637 197.225C186.971 197.915 187.67 198.353 188.437 198.353V196.353ZM297.563 196.353V198.353C298.668 198.353 299.563 197.458 299.563 196.353H297.563ZM297.54 198.351C297.668 198.352 297.796 198.353 297.924 198.353V194.353C297.811 194.353 297.699 194.352 297.586 194.351L297.54 198.351ZM297.924 198.353C316.192 198.353 331 183.544 331 165.277H327C327 181.335 313.982 194.353 297.924 194.353V198.353ZM331 165.277C331 147.01 316.192 132.202 297.924 132.202V136.202C313.982 136.202 327 149.219 327 165.277H331ZM297.924 132.202C297.796 132.202 297.668 132.202 297.54 132.204L297.586 136.204C297.698 136.202 297.811 136.202 297.924 136.202V132.202ZM295.563 134.202V134.204H299.563V134.202H295.563ZM289.535 136.202H297.563V132.202H289.535V136.202ZM291.517 134.472C291.819 132.256 291.975 129.994 291.975 127.697H287.975C287.975 129.813 287.831 131.894 287.553 133.931L291.517 134.472ZM291.975 127.697C291.975 100.25 269.724 78 242.277 78V82C267.515 82 287.975 102.459 287.975 127.697H291.975ZM242.277 78C214.83 78 192.58 100.25 192.58 127.697H196.58C196.58 102.459 217.039 82 242.277 82V78ZM192.58 127.697C192.58 130.285 192.778 132.828 193.16 135.311L197.113 134.703C196.762 132.421 196.58 130.081 196.58 127.697H192.58ZM195.589 133.059C193.173 132.498 190.658 132.202 188.076 132.202V136.202C190.351 136.202 192.563 136.463 194.684 136.955L195.589 133.059ZM188.076 132.202C169.808 132.202 155 147.01 155 165.277H159C159 149.219 172.018 136.202 188.076 136.202V132.202ZM155 165.277C155 183.544 169.808 198.353 188.076 198.353V194.353C172.018 194.353 159 181.335 159 165.277H155ZM188.076 198.353C188.204 198.353 188.333 198.352 188.461 198.351L188.416 194.351C188.303 194.352 188.189 194.353 188.076 194.353V198.353ZM190.007 197.592L190.008 197.59L186.869 195.112L186.867 195.114L190.007 197.592ZM297.563 194.353H188.437V198.353H297.563V194.353ZM295.563 196.351V196.353H299.563V196.351H295.563Z" fill="url(#paint2_linear_2_456)" mask="url(#path-3-inside-1_2_456)"/>
</g>
<g filter="url(#filter2_bd_2_456)">
<mask id="path-5-inside-2_2_456" fill="white">
<path fill-rule="evenodd" clip-rule="evenodd" d="M211.563 196.351C211.683 196.352 211.804 196.353 211.924 196.353C229.087 196.353 243 182.44 243 165.277C243 148.115 229.087 134.202 211.924 134.202C211.804 134.202 211.683 134.202 211.563 134.204V134.202H203.535C203.825 132.075 203.975 129.904 203.975 127.697C203.975 101.355 182.62 80 156.277 80C129.935 80 108.58 101.355 108.58 127.697C108.58 130.183 108.77 132.624 109.136 135.007C106.868 134.48 104.504 134.202 102.076 134.202C84.913 134.202 71 148.115 71 165.277C71 182.44 84.913 196.353 102.076 196.353C102.197 196.353 102.318 196.352 102.439 196.351L102.437 196.353H211.563V196.351Z"/>
</mask>
<path fill-rule="evenodd" clip-rule="evenodd" d="M211.563 196.351C211.683 196.352 211.804 196.353 211.924 196.353C229.087 196.353 243 182.44 243 165.277C243 148.115 229.087 134.202 211.924 134.202C211.804 134.202 211.683 134.202 211.563 134.204V134.202H203.535C203.825 132.075 203.975 129.904 203.975 127.697C203.975 101.355 182.62 80 156.277 80C129.935 80 108.58 101.355 108.58 127.697C108.58 130.183 108.77 132.624 109.136 135.007C106.868 134.48 104.504 134.202 102.076 134.202C84.913 134.202 71 148.115 71 165.277C71 182.44 84.913 196.353 102.076 196.353C102.197 196.353 102.318 196.352 102.439 196.351L102.437 196.353H211.563V196.351Z" fill="url(#paint3_linear_2_456)" shape-rendering="crispEdges"/>
<path d="M211.563 196.351L211.586 194.351C211.052 194.345 210.537 194.553 210.157 194.929C209.777 195.304 209.563 195.816 209.563 196.351H211.563ZM211.563 134.204H209.563C209.563 134.738 209.777 135.25 210.157 135.626C210.537 136.002 211.051 136.21 211.586 136.204L211.563 134.204ZM211.563 134.202H213.563C213.563 133.097 212.668 132.202 211.563 132.202V134.202ZM203.535 134.202L201.553 133.931C201.475 134.504 201.649 135.082 202.028 135.517C202.408 135.952 202.957 136.202 203.535 136.202V134.202ZM109.136 135.007L108.684 136.955C109.33 137.106 110.009 136.925 110.496 136.474C110.983 136.023 111.214 135.359 111.113 134.703L109.136 135.007ZM102.439 196.351L104.008 197.59C104.486 196.985 104.573 196.16 104.233 195.468C103.893 194.777 103.186 194.342 102.416 194.351L102.439 196.351ZM102.437 196.353L100.867 195.114C100.392 195.715 100.303 196.535 100.637 197.225C100.971 197.915 101.67 198.353 102.437 198.353V196.353ZM211.563 196.353V198.353C212.668 198.353 213.563 197.458 213.563 196.353H211.563ZM211.54 198.351C211.668 198.352 211.796 198.353 211.924 198.353V194.353C211.811 194.353 211.699 194.352 211.586 194.351L211.54 198.351ZM211.924 198.353C230.192 198.353 245 183.544 245 165.277H241C241 181.335 227.982 194.353 211.924 194.353V198.353ZM245 165.277C245 147.01 230.192 132.202 211.924 132.202V136.202C227.982 136.202 241 149.219 241 165.277H245ZM211.924 132.202C211.796 132.202 211.668 132.202 211.54 132.204L211.586 136.204C211.698 136.202 211.811 136.202 211.924 136.202V132.202ZM209.563 134.202V134.204H213.563V134.202H209.563ZM203.535 136.202H211.563V132.202H203.535V136.202ZM205.517 134.472C205.819 132.256 205.975 129.994 205.975 127.697H201.975C201.975 129.813 201.831 131.894 201.553 133.931L205.517 134.472ZM205.975 127.697C205.975 100.25 183.724 78 156.277 78V82C181.515 82 201.975 102.459 201.975 127.697H205.975ZM156.277 78C128.83 78 106.58 100.25 106.58 127.697H110.58C110.58 102.459 131.039 82 156.277 82V78ZM106.58 127.697C106.58 130.285 106.778 132.828 107.16 135.311L111.113 134.703C110.762 132.421 110.58 130.081 110.58 127.697H106.58ZM109.589 133.059C107.173 132.498 104.658 132.202 102.076 132.202V136.202C104.351 136.202 106.563 136.463 108.684 136.955L109.589 133.059ZM102.076 132.202C83.8085 132.202 69 147.01 69 165.277H73C73 149.219 86.0176 136.202 102.076 136.202V132.202ZM69 165.277C69 183.544 83.8085 198.353 102.076 198.353V194.353C86.0176 194.353 73 181.335 73 165.277H69ZM102.076 198.353C102.204 198.353 102.333 198.352 102.461 198.351L102.416 194.351C102.303 194.352 102.189 194.353 102.076 194.353V198.353ZM104.007 197.592L104.008 197.59L100.869 195.112L100.867 195.114L104.007 197.592ZM211.563 194.353H102.437V198.353H211.563V194.353ZM209.563 196.351V196.353H213.563V196.351H209.563Z" fill="url(#paint4_linear_2_456)" mask="url(#path-5-inside-2_2_456)"/>
</g>
<defs>
<filter id="filter0_f_2_456" x="22" y="77" width="266" height="114" filterUnits="userSpaceOnUse" color-interpolation-filters="sRGB">
<feFlood flood-opacity="0" result="BackgroundImageFix"/>
<feBlend mode="normal" in="SourceGraphic" in2="BackgroundImageFix" result="shape"/>
<feGaussianBlur stdDeviation="7" result="effect1_foregroundBlur_2_456"/>
</filter>
<filter id="filter1_bd_2_456" x="86" y="45" width="272" height="216.353" filterUnits="userSpaceOnUse" color-interpolation-filters="sRGB">
<feFlood flood-opacity="0" result="BackgroundImageFix"/>
<feGaussianBlur in="BackgroundImageFix" stdDeviation="7"/>
<feComposite in2="SourceAlpha" operator="in" result="effect1_backgroundBlur_2_456"/>
<feColorMatrix in="SourceAlpha" type="matrix" values="0 0 0 0 0 0 0 0 0 0 0 0 0 0 0 0 0 0 127 0" result="hardAlpha"/>
<feOffset dx="-21" dy="15"/>
<feGaussianBlur stdDeviation="25"/>
<feComposite in2="hardAlpha" operator="out"/>
<feColorMatrix type="matrix" values="0 0 0 0 0.113438 0 0 0 0 0.148981 0 0 0 0 0.275 0 0 0 0.25 0"/>
<feBlend mode="normal" in2="effect1_backgroundBlur_2_456" result="effect2_dropShadow_2_456"/>
<feBlend mode="normal" in="SourceGraphic" in2="effect2_dropShadow_2_456" result="shape"/>
</filter>
<filter id="filter2_bd_2_456" x="0" y="45" width="272" height="216.353" filterUnits="userSpaceOnUse" color-interpolation-filters="sRGB">
<feFlood flood-opacity="0" result="BackgroundImageFix"/>
<feGaussianBlur in="BackgroundImageFix" stdDeviation="7"/>
<feComposite in2="SourceAlpha" operator="in" result="effect1_backgroundBlur_2_456"/>
<feColorMatrix in="SourceAlpha" type="matrix" values="0 0 0 0 0 0 0 0 0 0 0 0 0 0 0 0 0 0 127 0" result="hardAlpha"/>
<feOffset dx="-21" dy="15"/>
<feGaussianBlur stdDeviation="25"/>
<feComposite in2="hardAlpha" operator="out"/>
<feColorMatrix type="matrix" values="0 0 0 0 0.113438 0 0 0 0 0.148981 0 0 0 0 0.275 0 0 0 0.25 0"/>
<feBlend mode="normal" in2="effect1_backgroundBlur_2_456" result="effect2_dropShadow_2_456"/>
<feBlend mode="normal" in="SourceGraphic" in2="effect2_dropShadow_2_456" result="shape"/>
</filter>
<linearGradient id="paint0_linear_2_456" x1="184" y1="-33" x2="184" y2="85" gradientUnits="userSpaceOnUse">
<stop stop-color="#FFD600"/>
<stop offset="1" stop-color="#FF7A00"/>
</linearGradient>
<linearGradient id="paint1_linear_2_456" x1="251" y1="83.5" x2="251" y2="209.5" gradientUnits="userSpaceOnUse">
<stop stop-color="white"/>
<stop offset="1" stop-color="white" stop-opacity="0"/>
</linearGradient>
<linearGradient id="paint2_linear_2_456" x1="243" y1="80" x2="243" y2="196.353" gradientUnits="userSpaceOnUse">
<stop stop-color="white"/>
<stop offset="1" stop-color="white" stop-opacity="0"/>
</linearGradient>
<linearGradient id="paint3_linear_2_456" x1="165" y1="83.5" x2="165" y2="209.5" gradientUnits="userSpaceOnUse">
<stop stop-color="white"/>
<stop offset="1" stop-color="white" stop-opacity="0"/>
</linearGradient>
<linearGradient id="paint4_linear_2_456" x1="157" y1="80" x2="157" y2="196.353" gradientUnits="userSpaceOnUse">
<stop stop-color="white"/>
<stop offset="1" stop-color="white" stop-opacity="0"/>
</linearGradient>
</defs>
</svg>
