<svg width="1127" height="1127"  viewBox="-4 -4 55 61" fill="none" xmlns="http://www.w3.org/2000/svg">
<path d="M25.0711 2.50164C25.0711 1.54034 24.2918 0.761047 23.3305 0.761047C22.3692 0.761047 21.5899 1.54034 21.5899 2.50164V9.90341L18.7593 7.07282C18.0796 6.39308 16.9775 6.39308 16.2978 7.07282C15.618 7.75256 15.618 8.85464 16.2978 9.53438L21.5899 14.8265V23.8551L13.771 19.3409L11.8339 12.1116C11.5851 11.1831 10.6307 10.632 9.70211 10.8808C8.77357 11.1296 8.22253 12.0841 8.47133 13.0126L9.5074 16.8793L3.09726 13.1784C2.26475 12.6977 1.20022 12.983 0.719569 13.8155C0.238919 14.648 0.524158 15.7125 1.35667 16.1932L7.76675 19.894L3.90017 20.9301C2.97163 21.1789 2.42059 22.1333 2.66939 23.0619C2.91819 23.9904 3.87262 24.5415 4.80117 24.2927L12.0303 22.3556L19.8493 26.8699L12.0304 31.3842L4.80116 29.4471C3.87261 29.1983 2.91818 29.7494 2.66938 30.6779C2.42057 31.6064 2.97161 32.5609 3.90016 32.8097L7.76684 33.8457L1.3567 37.5466C0.524185 38.0273 0.238946 39.0918 0.719596 39.9243C1.20025 40.7568 2.26477 41.0421 3.09729 40.5614L9.5074 36.8606L8.47134 40.7272C8.22254 41.6557 8.77358 42.6101 9.70212 42.8589C10.6307 43.1077 11.5851 42.5567 11.8339 41.6282L13.771 34.399L21.5899 29.8847V38.9132L16.2978 44.2054C15.618 44.8851 15.618 45.9872 16.2978 46.667C16.9775 47.3467 18.0796 47.3467 18.7593 46.667L21.5899 43.8364V51.2381C21.5899 52.1994 22.3692 52.9787 23.3305 52.9787C24.2918 52.9787 25.0711 52.1994 25.0711 51.2381V43.8364L27.9017 46.667C28.5814 47.3467 29.6835 47.3467 30.3633 46.667C31.043 45.9872 31.043 44.8851 30.3633 44.2054L25.0711 38.9132V29.8847L32.8901 34.399L34.8271 41.6282C35.0759 42.5567 36.0304 43.1077 36.9589 42.8589C37.8875 42.6101 38.4385 41.6557 38.1897 40.7272L37.1537 36.8606L43.5637 40.5614C44.3962 41.0421 45.4608 40.7568 45.9414 39.9243C46.4221 39.0918 46.1368 38.0273 45.3043 37.5466L38.8942 33.8458L42.7609 32.8097C43.6894 32.5609 44.2404 31.6064 43.9916 30.6779C43.7428 29.7494 42.7884 29.1983 41.8599 29.4471L34.6306 31.3842L26.8117 26.8699L34.6307 22.3556L41.8599 24.2927C42.7884 24.5415 43.7429 23.9904 43.9917 23.0619C44.2405 22.1333 43.6894 21.1789 42.7609 20.9301L38.8943 19.894L45.3043 16.1932C46.1368 15.7125 46.4221 14.648 45.9414 13.8155C45.4608 12.983 44.3963 12.6977 43.5637 13.1784L37.1536 16.8793L38.1897 13.0126C38.4385 12.0841 37.8875 11.1296 36.9589 10.8808C36.0304 10.632 35.0759 11.1831 34.8271 12.1116L32.8901 19.3409L25.0711 23.8551V14.8265L30.3633 9.53438C31.043 8.85464 31.043 7.75256 30.3633 7.07282C29.6835 6.39308 28.5814 6.39308 27.9017 7.07282L25.0711 9.90341V2.50164Z" fill="#90EFDB"/>
</svg>
