<svg width="1127" height="1127" viewBox="387 387 353.241 353.241" fill="none" xmlns="http://www.w3.org/2000/svg">
<g filter="url(#filter0_bdd_2_322)">
<mask id="path-1-inside-1_2_322" fill="white">
<path fill-rule="evenodd" clip-rule="evenodd" d="M604.339 460.456C607.792 459.944 609.853 464.018 607.943 466.94C595.004 486.738 592.781 512.736 604.373 535.271C619.668 565.007 653.856 578.682 684.736 569.177C688.075 568.149 691.421 571.261 689.97 574.44C682.671 590.424 670.149 604.162 653.311 612.823C613.481 633.311 564.583 617.63 544.096 577.8C523.608 537.97 539.289 489.073 579.119 468.585C587.254 464.401 595.767 461.725 604.339 460.456Z"/>
</mask>
<path fill-rule="evenodd" clip-rule="evenodd" d="M604.339 460.456C607.792 459.944 609.853 464.018 607.943 466.94C595.004 486.738 592.781 512.736 604.373 535.271C619.668 565.007 653.856 578.682 684.736 569.177C688.075 568.149 691.421 571.261 689.97 574.44C682.671 590.424 670.149 604.162 653.311 612.823C613.481 633.311 564.583 617.63 544.096 577.8C523.608 537.97 539.289 489.073 579.119 468.585C587.254 464.401 595.767 461.725 604.339 460.456Z" fill="url(#paint0_linear_2_322)"/>
<path d="M604.339 460.456L604.632 462.434L604.339 460.456ZM606.151 534.357C594.902 512.487 597.056 487.255 609.617 468.035L606.269 465.846C592.953 486.222 590.66 512.986 602.594 536.186L606.151 534.357ZM684.148 567.265C654.178 576.49 620.995 563.215 606.151 534.357L602.594 536.186C618.34 566.798 653.534 580.873 685.324 571.088L684.148 567.265ZM688.15 573.609C681.032 589.199 668.821 602.596 652.396 611.045L654.226 614.602C671.477 605.728 684.311 591.648 691.789 575.27L688.15 573.609ZM652.396 611.045C613.548 631.027 565.857 615.733 545.874 576.885L542.317 578.715C563.31 619.527 613.413 635.595 654.226 614.602L652.396 611.045ZM545.874 576.885C525.892 538.037 541.186 490.346 580.034 470.364L578.204 466.807C537.392 487.799 521.325 537.902 542.317 578.715L545.874 576.885ZM580.034 470.364C587.971 466.281 596.274 463.672 604.632 462.434L604.046 458.477C595.26 459.778 586.537 462.521 578.204 466.807L580.034 470.364ZM685.324 571.088C686.247 570.804 687.168 571.091 687.752 571.662C688.306 572.203 688.478 572.89 688.15 573.609L691.789 575.27C692.912 572.811 692.137 570.353 690.546 568.8C688.986 567.276 686.564 566.521 684.148 567.265L685.324 571.088ZM609.617 468.035C610.999 465.92 610.945 463.385 609.915 461.465C608.864 459.507 606.719 458.081 604.046 458.477L604.632 462.434C605.412 462.319 606.024 462.674 606.39 463.356C606.776 464.075 606.797 465.038 606.269 465.846L609.617 468.035Z" fill="url(#paint1_linear_2_322)" mask="url(#path-1-inside-1_2_322)"/>
</g>
<g filter="url(#filter1_bd_2_322)">
<mask id="path-3-inside-2_2_322" fill="white">
<path fill-rule="evenodd" clip-rule="evenodd" d="M604.556 682.617C604.708 682.619 604.859 682.62 605.011 682.62C626.569 682.62 644.045 665.144 644.045 643.587C644.045 622.029 626.569 604.554 605.011 604.554C604.859 604.554 604.708 604.554 604.556 604.556V604.554H594.473C594.838 601.882 595.026 599.155 595.026 596.383C595.026 563.295 568.202 536.472 535.114 536.472C502.026 536.472 475.203 563.295 475.203 596.383C475.203 599.506 475.442 602.572 475.902 605.566C473.053 604.904 470.084 604.554 467.033 604.554C445.476 604.554 428 622.029 428 643.587C428 665.144 445.476 682.62 467.033 682.62C467.185 682.62 467.337 682.619 467.488 682.617L467.486 682.62H604.556V682.617Z"/>
</mask>
<path fill-rule="evenodd" clip-rule="evenodd" d="M604.556 682.617C604.708 682.619 604.859 682.62 605.011 682.62C626.569 682.62 644.045 665.144 644.045 643.587C644.045 622.029 626.569 604.554 605.011 604.554C604.859 604.554 604.708 604.554 604.556 604.556V604.554H594.473C594.838 601.882 595.026 599.155 595.026 596.383C595.026 563.295 568.202 536.472 535.114 536.472C502.026 536.472 475.203 563.295 475.203 596.383C475.203 599.506 475.442 602.572 475.902 605.566C473.053 604.904 470.084 604.554 467.033 604.554C445.476 604.554 428 622.029 428 643.587C428 665.144 445.476 682.62 467.033 682.62C467.185 682.62 467.337 682.619 467.488 682.617L467.486 682.62H604.556V682.617Z" fill="url(#paint2_linear_2_322)" shape-rendering="crispEdges"/>
<path d="M604.556 682.617L604.579 680.618C604.045 680.612 603.53 680.82 603.15 681.195C602.77 681.571 602.556 682.083 602.556 682.617H604.556ZM604.556 604.556H602.556C602.556 605.091 602.77 605.603 603.15 605.978C603.53 606.354 604.045 606.562 604.579 606.556L604.556 604.556ZM604.556 604.554H606.556C606.556 603.449 605.661 602.554 604.556 602.554V604.554ZM594.473 604.554L592.492 604.283C592.414 604.856 592.587 605.434 592.967 605.869C593.346 606.304 593.896 606.554 594.473 606.554V604.554ZM475.902 605.566L475.449 607.514C476.096 607.664 476.775 607.483 477.262 607.032C477.749 606.581 477.98 605.918 477.879 605.261L475.902 605.566ZM467.488 682.617L469.058 683.857C469.536 683.252 469.623 682.427 469.283 681.735C468.943 681.044 468.236 680.609 467.466 680.618L467.488 682.617ZM467.486 682.62L465.917 681.381C465.442 681.982 465.352 682.802 465.687 683.492C466.021 684.182 466.72 684.62 467.486 684.62V682.62ZM604.556 682.62V684.62C605.661 684.62 606.556 683.725 606.556 682.62H604.556ZM604.534 684.617C604.693 684.619 604.852 684.62 605.011 684.62V680.62C604.867 680.62 604.723 680.619 604.579 680.618L604.534 684.617ZM605.011 684.62C627.673 684.62 646.045 666.249 646.045 643.587H642.045C642.045 664.04 625.464 680.62 605.011 680.62V684.62ZM646.045 643.587C646.045 620.925 627.673 602.554 605.011 602.554V606.554C625.464 606.554 642.045 623.134 642.045 643.587H646.045ZM605.011 602.554C604.852 602.554 604.693 602.554 604.534 602.556L604.579 606.556C604.723 606.554 604.867 606.554 605.011 606.554V602.554ZM602.556 604.554V604.556H606.556V604.554H602.556ZM594.473 606.554H604.556V602.554H594.473V606.554ZM596.455 604.824C596.831 602.063 597.026 599.245 597.026 596.383H593.026C593.026 599.064 592.844 601.701 592.492 604.283L596.455 604.824ZM597.026 596.383C597.026 562.191 569.307 534.472 535.114 534.472V538.472C567.098 538.472 593.026 564.4 593.026 596.383H597.026ZM535.114 534.472C500.922 534.472 473.203 562.191 473.203 596.383H477.203C477.203 564.4 503.131 538.472 535.114 538.472V534.472ZM473.203 596.383C473.203 599.608 473.449 602.776 473.925 605.87L477.879 605.261C477.434 602.368 477.203 599.404 477.203 596.383H473.203ZM476.355 603.617C473.358 602.921 470.237 602.554 467.033 602.554V606.554C469.93 606.554 472.748 606.886 475.449 607.514L476.355 603.617ZM467.033 602.554C444.371 602.554 426 620.925 426 643.587H430C430 623.134 446.58 606.554 467.033 606.554V602.554ZM426 643.587C426 666.249 444.371 684.62 467.033 684.62V680.62C446.58 680.62 430 664.04 430 643.587H426ZM467.033 684.62C467.193 684.62 467.352 684.619 467.511 684.617L467.466 680.618C467.322 680.619 467.178 680.62 467.033 680.62V684.62ZM469.056 683.86L469.058 683.857L465.919 681.378L465.917 681.381L469.056 683.86ZM604.556 680.62H467.486V684.62H604.556V680.62ZM602.556 682.617V682.62H606.556V682.617H602.556Z" fill="url(#paint3_linear_2_322)" mask="url(#path-3-inside-2_2_322)"/>
</g>
<defs>
<filter id="filter0_bdd_2_322" x="464.098" y="422.412" width="264.22" height="264.41" filterUnits="userSpaceOnUse" color-interpolation-filters="sRGB">
<feFlood flood-opacity="0" result="BackgroundImageFix"/>
<feGaussianBlur in="BackgroundImageFix" stdDeviation="7"/>
<feComposite in2="SourceAlpha" operator="in" result="effect1_backgroundBlur_2_322"/>
<feColorMatrix in="SourceAlpha" type="matrix" values="0 0 0 0 0 0 0 0 0 0 0 0 0 0 0 0 0 0 127 0" result="hardAlpha"/>
<feOffset dx="-21" dy="15"/>
<feGaussianBlur stdDeviation="25"/>
<feComposite in2="hardAlpha" operator="out"/>
<feColorMatrix type="matrix" values="0 0 0 0 0.113438 0 0 0 0 0.148981 0 0 0 0 0.275 0 0 0 0.25 0"/>
<feBlend mode="normal" in2="effect1_backgroundBlur_2_322" result="effect2_dropShadow_2_322"/>
<feColorMatrix in="SourceAlpha" type="matrix" values="0 0 0 0 0 0 0 0 0 0 0 0 0 0 0 0 0 0 127 0" result="hardAlpha"/>
<feOffset/>
<feGaussianBlur stdDeviation="19"/>
<feComposite in2="hardAlpha" operator="out"/>
<feColorMatrix type="matrix" values="0 0 0 0 0.619608 0 0 0 0 0.423529 0 0 0 0 1 0 0 0 0.4 0"/>
<feBlend mode="normal" in2="effect2_dropShadow_2_322" result="effect3_dropShadow_2_322"/>
<feBlend mode="normal" in="SourceGraphic" in2="effect3_dropShadow_2_322" result="shape"/>
</filter>
<filter id="filter1_bd_2_322" x="357" y="501.472" width="316.045" height="246.148" filterUnits="userSpaceOnUse" color-interpolation-filters="sRGB">
<feFlood flood-opacity="0" result="BackgroundImageFix"/>
<feGaussianBlur in="BackgroundImageFix" stdDeviation="7"/>
<feComposite in2="SourceAlpha" operator="in" result="effect1_backgroundBlur_2_322"/>
<feColorMatrix in="SourceAlpha" type="matrix" values="0 0 0 0 0 0 0 0 0 0 0 0 0 0 0 0 0 0 127 0" result="hardAlpha"/>
<feOffset dx="-21" dy="15"/>
<feGaussianBlur stdDeviation="25"/>
<feComposite in2="hardAlpha" operator="out"/>
<feColorMatrix type="matrix" values="0 0 0 0 0.113438 0 0 0 0 0.148981 0 0 0 0 0.275 0 0 0 0.25 0"/>
<feBlend mode="normal" in2="effect1_backgroundBlur_2_322" result="effect2_dropShadow_2_322"/>
<feBlend mode="normal" in="SourceGraphic" in2="effect2_dropShadow_2_322" result="shape"/>
</filter>
<linearGradient id="paint0_linear_2_322" x1="563.961" y1="477.989" x2="638.152" y2="622.227" gradientUnits="userSpaceOnUse">
<stop offset="0.0001" stop-color="#D4C0FF"/>
<stop offset="1" stop-color="#7E2FFF"/>
</linearGradient>
<linearGradient id="paint1_linear_2_322" x1="572.038" y1="398.677" x2="618.183" y2="587.979" gradientUnits="userSpaceOnUse">
<stop stop-color="white"/>
<stop offset="1" stop-color="white" stop-opacity="0"/>
</linearGradient>
<linearGradient id="paint2_linear_2_322" x1="546.071" y1="540.868" x2="546.071" y2="699.134" gradientUnits="userSpaceOnUse">
<stop stop-color="white"/>
<stop offset="1" stop-color="white" stop-opacity="0"/>
</linearGradient>
<linearGradient id="paint3_linear_2_322" x1="536.022" y1="536.472" x2="536.022" y2="682.62" gradientUnits="userSpaceOnUse">
<stop stop-color="white"/>
<stop offset="1" stop-color="white" stop-opacity="0"/>
</linearGradient>
</defs>
</svg>
