<svg width="1127" height="1127" viewBox="0 0 1127 1127" fill="none" xmlns="http://www.w3.org/2000/svg">
<g filter="url(#filter0_bd_2_27)">
<mask id="path-1-inside-1_2_27" fill="white">
<path fill-rule="evenodd" clip-rule="evenodd" d="M532.563 582.351C532.683 582.352 532.804 582.353 532.924 582.353C550.087 582.353 564 568.44 564 551.277C564 534.115 550.087 520.202 532.924 520.202C532.804 520.202 532.683 520.202 532.563 520.204V520.202H524.535C524.825 518.075 524.975 515.904 524.975 513.697C524.975 487.355 503.62 466 477.277 466C450.935 466 429.58 487.355 429.58 513.697C429.58 516.183 429.77 518.624 430.136 521.007C427.868 520.48 425.504 520.202 423.076 520.202C405.913 520.202 392 534.115 392 551.277C392 568.44 405.913 582.353 423.076 582.353C423.197 582.353 423.318 582.352 423.439 582.351L423.437 582.353H532.563V582.351Z"/>
</mask>
<path fill-rule="evenodd" clip-rule="evenodd" d="M532.563 582.351C532.683 582.352 532.804 582.353 532.924 582.353C550.087 582.353 564 568.44 564 551.277C564 534.115 550.087 520.202 532.924 520.202C532.804 520.202 532.683 520.202 532.563 520.204V520.202H524.535C524.825 518.075 524.975 515.904 524.975 513.697C524.975 487.355 503.62 466 477.277 466C450.935 466 429.58 487.355 429.58 513.697C429.58 516.183 429.77 518.624 430.136 521.007C427.868 520.48 425.504 520.202 423.076 520.202C405.913 520.202 392 534.115 392 551.277C392 568.44 405.913 582.353 423.076 582.353C423.197 582.353 423.318 582.352 423.439 582.351L423.437 582.353H532.563V582.351Z" fill="url(#paint0_linear_2_27)" shape-rendering="crispEdges"/>
<path d="M532.563 582.351L532.586 580.351C532.052 580.345 531.537 580.553 531.157 580.929C530.777 581.304 530.563 581.816 530.563 582.351H532.563ZM532.563 520.204H530.563C530.563 520.738 530.777 521.25 531.157 521.626C531.537 522.002 532.051 522.21 532.586 522.204L532.563 520.204ZM532.563 520.202H534.563C534.563 519.097 533.668 518.202 532.563 518.202V520.202ZM524.535 520.202L522.553 519.931C522.475 520.504 522.649 521.082 523.028 521.517C523.408 521.952 523.957 522.202 524.535 522.202V520.202ZM430.136 521.007L429.684 522.955C430.33 523.106 431.009 522.925 431.496 522.474C431.983 522.023 432.214 521.359 432.113 520.703L430.136 521.007ZM423.439 582.351L425.008 583.59C425.486 582.985 425.573 582.16 425.233 581.468C424.893 580.777 424.186 580.342 423.416 580.351L423.439 582.351ZM423.437 582.353L421.867 581.114C421.392 581.715 421.303 582.535 421.637 583.225C421.971 583.915 422.67 584.353 423.437 584.353V582.353ZM532.563 582.353V584.353C533.668 584.353 534.563 583.458 534.563 582.353H532.563ZM532.54 584.351C532.668 584.352 532.796 584.353 532.924 584.353V580.353C532.811 580.353 532.699 580.352 532.586 580.351L532.54 584.351ZM532.924 584.353C551.192 584.353 566 569.544 566 551.277H562C562 567.335 548.982 580.353 532.924 580.353V584.353ZM566 551.277C566 533.01 551.192 518.202 532.924 518.202V522.202C548.982 522.202 562 535.219 562 551.277H566ZM532.924 518.202C532.796 518.202 532.668 518.202 532.54 518.204L532.586 522.204C532.699 522.202 532.811 522.202 532.924 522.202V518.202ZM530.563 520.202V520.204H534.563V520.202H530.563ZM524.535 522.202H532.563V518.202H524.535V522.202ZM526.517 520.472C526.819 518.256 526.975 515.994 526.975 513.697H522.975C522.975 515.813 522.831 517.894 522.553 519.931L526.517 520.472ZM526.975 513.697C526.975 486.25 504.724 464 477.277 464V468C502.515 468 522.975 488.459 522.975 513.697H526.975ZM477.277 464C449.83 464 427.58 486.25 427.58 513.697H431.58C431.58 488.459 452.039 468 477.277 468V464ZM427.58 513.697C427.58 516.285 427.778 518.828 428.16 521.311L432.113 520.703C431.762 518.421 431.58 516.081 431.58 513.697H427.58ZM430.589 519.059C428.173 518.498 425.658 518.202 423.076 518.202V522.202C425.351 522.202 427.563 522.463 429.684 522.955L430.589 519.059ZM423.076 518.202C404.808 518.202 390 533.01 390 551.277H394C394 535.219 407.018 522.202 423.076 522.202V518.202ZM390 551.277C390 569.544 404.808 584.353 423.076 584.353V580.353C407.018 580.353 394 567.335 394 551.277H390ZM423.076 584.353C423.204 584.353 423.333 584.352 423.461 584.351L423.416 580.351C423.303 580.352 423.189 580.353 423.076 580.353V584.353ZM425.007 583.592L425.008 583.59L421.869 581.112L421.867 581.114L425.007 583.592ZM532.563 580.353H423.437V584.353H532.563V580.353ZM530.563 582.351V582.353H534.563V582.351H530.563Z" fill="url(#paint1_linear_2_27)" mask="url(#path-1-inside-1_2_27)"/>
</g>
<g filter="url(#filter1_bd_2_27)">
<mask id="path-3-inside-2_2_27" fill="white">
<path fill-rule="evenodd" clip-rule="evenodd" d="M626.5 661.997C626.666 661.999 626.833 662 627 662C650.748 662 670 642.748 670 619C670 595.252 650.748 576 627 576C626.833 576 626.666 576.001 626.5 576.003V576H615.391C615.793 573.057 616 570.053 616 567C616 530.549 586.451 501 550 501C513.549 501 484 530.549 484 567C484 570.439 484.263 573.817 484.77 577.115C481.631 576.386 478.361 576 475 576C451.252 576 432 595.252 432 619C432 642.748 451.252 662 475 662C475.168 662 475.335 661.999 475.502 661.997L475.5 662H626.5V661.997Z"/>
</mask>
<path fill-rule="evenodd" clip-rule="evenodd" d="M626.5 661.997C626.666 661.999 626.833 662 627 662C650.748 662 670 642.748 670 619C670 595.252 650.748 576 627 576C626.833 576 626.666 576.001 626.5 576.003V576H615.391C615.793 573.057 616 570.053 616 567C616 530.549 586.451 501 550 501C513.549 501 484 530.549 484 567C484 570.439 484.263 573.817 484.77 577.115C481.631 576.386 478.361 576 475 576C451.252 576 432 595.252 432 619C432 642.748 451.252 662 475 662C475.168 662 475.335 661.999 475.502 661.997L475.5 662H626.5V661.997Z" fill="url(#paint2_linear_2_27)" shape-rendering="crispEdges"/>
<path d="M626.5 661.997L626.523 659.997C625.988 659.991 625.474 660.199 625.094 660.575C624.714 660.951 624.5 661.463 624.5 661.997H626.5ZM626.5 576.003H624.5C624.5 576.537 624.714 577.049 625.094 577.425C625.474 577.801 625.988 578.009 626.523 578.003L626.5 576.003ZM626.5 576H628.5C628.5 574.895 627.605 574 626.5 574V576ZM615.391 576L613.41 575.73C613.332 576.302 613.505 576.88 613.885 577.315C614.265 577.75 614.814 578 615.391 578V576ZM484.77 577.115L484.318 579.063C484.964 579.213 485.643 579.033 486.13 578.582C486.617 578.13 486.848 577.467 486.747 576.811L484.77 577.115ZM475.502 661.997L477.072 663.237C477.549 662.632 477.637 661.807 477.297 661.115C476.957 660.423 476.25 659.988 475.479 659.997L475.502 661.997ZM475.5 662L473.931 660.76C473.455 661.362 473.366 662.182 473.7 662.872C474.034 663.562 474.733 664 475.5 664V662ZM626.5 662V664C627.605 664 628.5 663.105 628.5 662H626.5ZM626.477 663.997C626.651 663.999 626.825 664 627 664V660C626.841 660 626.682 659.999 626.523 659.997L626.477 663.997ZM627 664C651.853 664 672 643.853 672 619H668C668 641.644 649.644 660 627 660V664ZM672 619C672 594.147 651.853 574 627 574V578C649.644 578 668 596.356 668 619H672ZM627 574C626.826 574 626.651 574.001 626.477 574.003L626.523 578.003C626.682 578.001 626.841 578 627 578V574ZM624.5 576V576.003H628.5V576H624.5ZM615.391 578H626.5V574H615.391V578ZM617.373 576.27C617.787 573.238 618 570.143 618 567H614C614 569.962 613.799 572.876 613.41 575.73L617.373 576.27ZM618 567C618 529.445 587.555 499 550 499V503C585.346 503 614 531.654 614 567H618ZM550 499C512.445 499 482 529.445 482 567H486C486 531.654 514.654 503 550 503V499ZM482 567C482 570.542 482.271 574.021 482.793 577.419L486.747 576.811C486.255 573.614 486 570.337 486 567H482ZM485.223 575.167C481.937 574.403 478.514 574 475 574V578C478.207 578 481.326 578.368 484.318 579.063L485.223 575.167ZM475 574C450.147 574 430 594.147 430 619H434C434 596.356 452.356 578 475 578V574ZM430 619C430 643.853 450.147 664 475 664V660C452.356 660 434 641.644 434 619H430ZM475 664C475.175 664 475.35 663.999 475.525 663.997L475.479 659.997C475.32 659.999 475.16 660 475 660V664ZM477.069 663.24L477.072 663.237L473.933 660.757L473.931 660.76L477.069 663.24ZM626.5 660H475.5V664H626.5V660ZM624.5 661.997V662H628.5V661.997H624.5Z" fill="url(#paint3_linear_2_27)" mask="url(#path-3-inside-2_2_27)"/>
</g>
<g filter="url(#filter2_bd_2_27)">
<mask id="path-5-inside-3_2_27" fill="white">
<path fill-rule="evenodd" clip-rule="evenodd" d="M704.563 617.351C704.683 617.352 704.804 617.353 704.924 617.353C722.087 617.353 736 603.44 736 586.277C736 569.115 722.087 555.202 704.924 555.202C704.804 555.202 704.683 555.202 704.563 555.204V555.202H696.535C696.825 553.075 696.975 550.904 696.975 548.697C696.975 522.355 675.62 501 649.277 501C622.935 501 601.58 522.355 601.58 548.697C601.58 551.183 601.77 553.624 602.136 556.007C599.868 555.48 597.504 555.202 595.076 555.202C577.913 555.202 564 569.115 564 586.277C564 603.44 577.913 617.353 595.076 617.353C595.197 617.353 595.318 617.352 595.439 617.351L595.437 617.353H704.563V617.351Z"/>
</mask>
<path fill-rule="evenodd" clip-rule="evenodd" d="M704.563 617.351C704.683 617.352 704.804 617.353 704.924 617.353C722.087 617.353 736 603.44 736 586.277C736 569.115 722.087 555.202 704.924 555.202C704.804 555.202 704.683 555.202 704.563 555.204V555.202H696.535C696.825 553.075 696.975 550.904 696.975 548.697C696.975 522.355 675.62 501 649.277 501C622.935 501 601.58 522.355 601.58 548.697C601.58 551.183 601.77 553.624 602.136 556.007C599.868 555.48 597.504 555.202 595.076 555.202C577.913 555.202 564 569.115 564 586.277C564 603.44 577.913 617.353 595.076 617.353C595.197 617.353 595.318 617.352 595.439 617.351L595.437 617.353H704.563V617.351Z" fill="url(#paint4_linear_2_27)" shape-rendering="crispEdges"/>
<path d="M704.563 617.351L704.586 615.351C704.052 615.345 703.537 615.553 703.157 615.929C702.777 616.304 702.563 616.816 702.563 617.351H704.563ZM704.563 555.204H702.563C702.563 555.738 702.777 556.25 703.157 556.626C703.537 557.002 704.051 557.21 704.586 557.204L704.563 555.204ZM704.563 555.202H706.563C706.563 554.097 705.668 553.202 704.563 553.202V555.202ZM696.535 555.202L694.553 554.931C694.475 555.504 694.649 556.082 695.028 556.517C695.408 556.952 695.957 557.202 696.535 557.202V555.202ZM602.136 556.007L601.684 557.955C602.33 558.106 603.009 557.925 603.496 557.474C603.983 557.023 604.214 556.359 604.113 555.703L602.136 556.007ZM595.439 617.351L597.008 618.59C597.486 617.985 597.573 617.16 597.233 616.468C596.893 615.777 596.186 615.342 595.416 615.351L595.439 617.351ZM595.437 617.353L593.867 616.114C593.392 616.715 593.303 617.535 593.637 618.225C593.971 618.915 594.67 619.353 595.437 619.353V617.353ZM704.563 617.353V619.353C705.668 619.353 706.563 618.458 706.563 617.353H704.563ZM704.54 619.351C704.668 619.352 704.796 619.353 704.924 619.353V615.353C704.811 615.353 704.699 615.352 704.586 615.351L704.54 619.351ZM704.924 619.353C723.192 619.353 738 604.544 738 586.277H734C734 602.335 720.982 615.353 704.924 615.353V619.353ZM738 586.277C738 568.01 723.192 553.202 704.924 553.202V557.202C720.982 557.202 734 570.219 734 586.277H738ZM704.924 553.202C704.796 553.202 704.668 553.202 704.54 553.204L704.586 557.204C704.699 557.202 704.811 557.202 704.924 557.202V553.202ZM702.563 555.202V555.204H706.563V555.202H702.563ZM696.535 557.202H704.563V553.202H696.535V557.202ZM698.517 555.472C698.819 553.256 698.975 550.994 698.975 548.697H694.975C694.975 550.813 694.831 552.894 694.553 554.931L698.517 555.472ZM698.975 548.697C698.975 521.25 676.724 499 649.277 499V503C674.515 503 694.975 523.459 694.975 548.697H698.975ZM649.277 499C621.83 499 599.58 521.25 599.58 548.697H603.58C603.58 523.459 624.039 503 649.277 503V499ZM599.58 548.697C599.58 551.285 599.778 553.828 600.16 556.311L604.113 555.703C603.762 553.421 603.58 551.081 603.58 548.697H599.58ZM602.589 554.059C600.173 553.498 597.658 553.202 595.076 553.202V557.202C597.351 557.202 599.563 557.463 601.684 557.955L602.589 554.059ZM595.076 553.202C576.808 553.202 562 568.01 562 586.277H566C566 570.219 579.018 557.202 595.076 557.202V553.202ZM562 586.277C562 604.544 576.808 619.353 595.076 619.353V615.353C579.018 615.353 566 602.335 566 586.277H562ZM595.076 619.353C595.204 619.353 595.333 619.352 595.461 619.351L595.416 615.351C595.303 615.352 595.189 615.353 595.076 615.353V619.353ZM597.007 618.592L597.008 618.59L593.869 616.112L593.867 616.114L597.007 618.592ZM704.563 615.353H595.437V619.353H704.563V615.353ZM702.563 617.351V617.353H706.563V617.351H702.563Z" fill="url(#paint5_linear_2_27)" mask="url(#path-5-inside-3_2_27)"/>
</g>
<defs>
<filter id="filter0_bd_2_27" x="321" y="431" width="272" height="216.353" filterUnits="userSpaceOnUse" color-interpolation-filters="sRGB">
<feFlood flood-opacity="0" result="BackgroundImageFix"/>
<feGaussianBlur in="BackgroundImageFix" stdDeviation="7"/>
<feComposite in2="SourceAlpha" operator="in" result="effect1_backgroundBlur_2_27"/>
<feColorMatrix in="SourceAlpha" type="matrix" values="0 0 0 0 0 0 0 0 0 0 0 0 0 0 0 0 0 0 127 0" result="hardAlpha"/>
<feOffset dx="-21" dy="15"/>
<feGaussianBlur stdDeviation="25"/>
<feComposite in2="hardAlpha" operator="out"/>
<feColorMatrix type="matrix" values="0 0 0 0 0.113438 0 0 0 0 0.148981 0 0 0 0 0.275 0 0 0 0.25 0"/>
<feBlend mode="normal" in2="effect1_backgroundBlur_2_27" result="effect2_dropShadow_2_27"/>
<feBlend mode="normal" in="SourceGraphic" in2="effect2_dropShadow_2_27" result="shape"/>
</filter>
<filter id="filter1_bd_2_27" x="361" y="466" width="338" height="261" filterUnits="userSpaceOnUse" color-interpolation-filters="sRGB">
<feFlood flood-opacity="0" result="BackgroundImageFix"/>
<feGaussianBlur in="BackgroundImageFix" stdDeviation="7"/>
<feComposite in2="SourceAlpha" operator="in" result="effect1_backgroundBlur_2_27"/>
<feColorMatrix in="SourceAlpha" type="matrix" values="0 0 0 0 0 0 0 0 0 0 0 0 0 0 0 0 0 0 127 0" result="hardAlpha"/>
<feOffset dx="-21" dy="15"/>
<feGaussianBlur stdDeviation="25"/>
<feComposite in2="hardAlpha" operator="out"/>
<feColorMatrix type="matrix" values="0 0 0 0 0.113725 0 0 0 0 0.14902 0 0 0 0 0.27451 0 0 0 0.25 0"/>
<feBlend mode="normal" in2="effect1_backgroundBlur_2_27" result="effect2_dropShadow_2_27"/>
<feBlend mode="normal" in="SourceGraphic" in2="effect2_dropShadow_2_27" result="shape"/>
</filter>
<filter id="filter2_bd_2_27" x="493" y="466" width="272" height="216.353" filterUnits="userSpaceOnUse" color-interpolation-filters="sRGB">
<feFlood flood-opacity="0" result="BackgroundImageFix"/>
<feGaussianBlur in="BackgroundImageFix" stdDeviation="7"/>
<feComposite in2="SourceAlpha" operator="in" result="effect1_backgroundBlur_2_27"/>
<feColorMatrix in="SourceAlpha" type="matrix" values="0 0 0 0 0 0 0 0 0 0 0 0 0 0 0 0 0 0 127 0" result="hardAlpha"/>
<feOffset dx="-21" dy="15"/>
<feGaussianBlur stdDeviation="25"/>
<feComposite in2="hardAlpha" operator="out"/>
<feColorMatrix type="matrix" values="0 0 0 0 0.113438 0 0 0 0 0.148981 0 0 0 0 0.275 0 0 0 0.25 0"/>
<feBlend mode="normal" in2="effect1_backgroundBlur_2_27" result="effect2_dropShadow_2_27"/>
<feBlend mode="normal" in="SourceGraphic" in2="effect2_dropShadow_2_27" result="shape"/>
</filter>
<linearGradient id="paint0_linear_2_27" x1="486" y1="469.5" x2="486" y2="595.5" gradientUnits="userSpaceOnUse">
<stop stop-color="white"/>
<stop offset="1" stop-color="white" stop-opacity="0"/>
</linearGradient>
<linearGradient id="paint1_linear_2_27" x1="478" y1="466" x2="478" y2="582.353" gradientUnits="userSpaceOnUse">
<stop stop-color="white"/>
<stop offset="1" stop-color="white" stop-opacity="0"/>
</linearGradient>
<linearGradient id="paint2_linear_2_27" x1="551" y1="449.5" x2="551" y2="684.5" gradientUnits="userSpaceOnUse">
<stop stop-color="white"/>
<stop offset="1" stop-color="white" stop-opacity="0"/>
</linearGradient>
<linearGradient id="paint3_linear_2_27" x1="551" y1="501" x2="551" y2="662" gradientUnits="userSpaceOnUse">
<stop stop-color="white"/>
<stop offset="1" stop-color="white" stop-opacity="0"/>
</linearGradient>
<linearGradient id="paint4_linear_2_27" x1="658" y1="504.5" x2="658" y2="630.5" gradientUnits="userSpaceOnUse">
<stop stop-color="white"/>
<stop offset="1" stop-color="white" stop-opacity="0"/>
</linearGradient>
<linearGradient id="paint5_linear_2_27" x1="650" y1="501" x2="650" y2="617.353" gradientUnits="userSpaceOnUse">
<stop stop-color="white"/>
<stop offset="1" stop-color="white" stop-opacity="0"/>
</linearGradient>
</defs>
</svg>
