<svg width="1127" height="1127" viewBox="0 0 1127 1127" fill="none" xmlns="http://www.w3.org/2000/svg">
<g filter="url(#filter0_bdd_2_300)">
<mask id="path-1-inside-1_2_300" fill="white">
<path fill-rule="evenodd" clip-rule="evenodd" d="M552.019 438.137C555.456 437.528 557.545 441.596 555.735 444.581C546.264 460.202 544.89 480.229 553.858 497.664C565.797 520.874 592.132 531.847 616.348 525.286C619.721 524.372 623.054 527.51 621.513 530.646C615.585 542.715 605.865 553.051 592.989 559.674C561.141 576.056 522.043 563.518 505.662 531.67C489.28 499.822 501.818 460.724 533.666 444.343C539.597 441.292 545.779 439.244 552.019 438.137Z"/>
</mask>
<path fill-rule="evenodd" clip-rule="evenodd" d="M552.019 438.137C555.456 437.528 557.545 441.596 555.735 444.581C546.264 460.202 544.89 480.229 553.858 497.664C565.797 520.874 592.132 531.847 616.348 525.286C619.721 524.372 623.054 527.51 621.513 530.646C615.585 542.715 605.865 553.051 592.989 559.674C561.141 576.056 522.043 563.518 505.662 531.67C489.28 499.822 501.818 460.724 533.666 444.343C539.597 441.292 545.779 439.244 552.019 438.137Z" fill="url(#paint0_linear_2_300)"/>
<path d="M621.513 530.646L623.308 531.527L621.513 530.646ZM555.637 496.75C547 479.958 548.32 460.669 557.445 445.618L554.025 443.545C544.208 459.734 542.781 480.5 552.08 498.579L555.637 496.75ZM615.825 523.356C592.5 529.675 567.135 519.103 555.637 496.75L552.08 498.579C564.459 522.646 591.763 534.019 616.871 527.216L615.825 523.356ZM619.718 529.764C613.973 541.461 604.555 551.476 592.074 557.896L593.904 561.453C607.175 554.626 617.197 543.969 623.308 531.527L619.718 529.764ZM592.074 557.896C561.208 573.772 523.316 561.621 507.44 530.755L503.883 532.585C520.77 565.415 561.074 578.34 593.904 561.453L592.074 557.896ZM507.44 530.755C491.564 499.889 503.715 461.997 534.581 446.121L532.751 442.564C499.921 459.451 486.996 499.755 503.883 532.585L507.44 530.755ZM534.581 446.121C540.332 443.163 546.323 441.179 552.368 440.107L551.669 436.168C545.235 437.31 538.862 439.421 532.751 442.564L534.581 446.121ZM616.871 527.216C617.825 526.958 618.773 527.275 619.359 527.862C619.908 528.411 620.057 529.075 619.718 529.764L623.308 531.527C624.51 529.08 623.762 526.608 622.187 525.033C620.649 523.495 618.244 522.7 615.825 523.356L616.871 527.216ZM557.445 445.618C558.743 443.477 558.646 440.948 557.595 439.045C556.519 437.096 554.352 435.692 551.669 436.168L552.368 440.107C553.123 439.973 553.719 440.299 554.094 440.978C554.494 441.703 554.536 442.701 554.025 443.545L557.445 445.618Z" fill="url(#paint1_linear_2_300)" mask="url(#path-1-inside-1_2_300)"/>
</g>
<mask id="mask0_2_300" style="mask-type:alpha" maskUnits="userSpaceOnUse" x="525" y="520" width="118" height="85">
<path d="M643 546C643 578.585 616.585 605 584 605C551.415 605 525 578.585 525 546C525 513.415 546.915 521 579.5 521C612.085 521 643 513.415 643 546Z" fill="url(#paint2_linear_2_300)"/>
</mask>
<g mask="url(#mask0_2_300)">
<g filter="url(#filter1_f_2_300)">
<path fill-rule="evenodd" clip-rule="evenodd" d="M479.502 696.997C479.335 696.999 479.168 697 479 697C455.252 697 436 677.748 436 654C436 630.252 455.252 611 479 611C499.47 611 516.6 625.304 520.938 644.462L535.5 626L581 611H630.5V611.003C630.666 611.001 630.833 611 631 611C654.748 611 674 630.252 674 654C674 677.748 654.748 697 631 697C630.833 697 630.666 696.999 630.5 696.997V697H479.5L479.502 696.997Z" fill="#E18700"/>
</g>
</g>
<g filter="url(#filter2_bd_2_300)">
<mask id="path-5-inside-2_2_300" fill="white">
<path fill-rule="evenodd" clip-rule="evenodd" d="M605.5 701.997C605.666 701.999 605.833 702 606 702C629.748 702 649 682.748 649 659C649 635.252 629.748 616 606 616C605.833 616 605.666 616.001 605.5 616.003V616H594.391C594.793 613.057 595 610.053 595 607C595 570.549 565.451 541 529 541C492.549 541 463 570.549 463 607C463 610.439 463.263 613.817 463.77 617.115C460.631 616.386 457.361 616 454 616C430.252 616 411 635.252 411 659C411 682.748 430.252 702 454 702C454.168 702 454.335 701.999 454.502 701.997L454.5 702H605.5V701.997Z"/>
</mask>
<path fill-rule="evenodd" clip-rule="evenodd" d="M605.5 701.997C605.666 701.999 605.833 702 606 702C629.748 702 649 682.748 649 659C649 635.252 629.748 616 606 616C605.833 616 605.666 616.001 605.5 616.003V616H594.391C594.793 613.057 595 610.053 595 607C595 570.549 565.451 541 529 541C492.549 541 463 570.549 463 607C463 610.439 463.263 613.817 463.77 617.115C460.631 616.386 457.361 616 454 616C430.252 616 411 635.252 411 659C411 682.748 430.252 702 454 702C454.168 702 454.335 701.999 454.502 701.997L454.5 702H605.5V701.997Z" fill="url(#paint3_linear_2_300)" shape-rendering="crispEdges"/>
<path d="M605.5 701.997L605.523 699.997C604.988 699.991 604.474 700.199 604.094 700.575C603.714 700.951 603.5 701.463 603.5 701.997H605.5ZM605.5 616.003H603.5C603.5 616.537 603.714 617.049 604.094 617.425C604.474 617.801 604.988 618.009 605.523 618.003L605.5 616.003ZM605.5 616H607.5C607.5 614.895 606.605 614 605.5 614V616ZM594.391 616L592.41 615.73C592.332 616.302 592.505 616.88 592.885 617.315C593.265 617.75 593.814 618 594.391 618V616ZM463.77 617.115L463.318 619.063C463.964 619.213 464.643 619.033 465.13 618.582C465.617 618.13 465.848 617.467 465.747 616.811L463.77 617.115ZM454.502 701.997L456.072 703.237C456.549 702.632 456.637 701.807 456.297 701.115C455.957 700.423 455.25 699.988 454.479 699.997L454.502 701.997ZM454.5 702L452.931 700.76C452.455 701.362 452.366 702.182 452.7 702.872C453.034 703.562 453.733 704 454.5 704V702ZM605.5 702V704C606.605 704 607.5 703.105 607.5 702H605.5ZM605.477 703.997C605.651 703.999 605.825 704 606 704V700C605.841 700 605.682 699.999 605.523 699.997L605.477 703.997ZM606 704C630.853 704 651 683.853 651 659H647C647 681.644 628.644 700 606 700V704ZM651 659C651 634.147 630.853 614 606 614V618C628.644 618 647 636.356 647 659H651ZM606 614C605.826 614 605.651 614.001 605.477 614.003L605.523 618.003C605.682 618.001 605.841 618 606 618V614ZM603.5 616V616.003H607.5V616H603.5ZM594.391 618H605.5V614H594.391V618ZM596.373 616.27C596.787 613.238 597 610.143 597 607H593C593 609.962 592.799 612.876 592.41 615.73L596.373 616.27ZM597 607C597 569.445 566.555 539 529 539V543C564.346 543 593 571.654 593 607H597ZM529 539C491.445 539 461 569.445 461 607H465C465 571.654 493.654 543 529 543V539ZM461 607C461 610.542 461.271 614.021 461.793 617.419L465.747 616.811C465.255 613.614 465 610.337 465 607H461ZM464.223 615.167C460.937 614.403 457.514 614 454 614V618C457.207 618 460.326 618.368 463.318 619.063L464.223 615.167ZM454 614C429.147 614 409 634.147 409 659H413C413 636.356 431.356 618 454 618V614ZM409 659C409 683.853 429.147 704 454 704V700C431.356 700 413 681.644 413 659H409ZM454 704C454.175 704 454.35 703.999 454.525 703.997L454.479 699.997C454.32 699.999 454.16 700 454 700V704ZM456.069 703.24L456.072 703.237L452.933 700.757L452.931 700.76L456.069 703.24ZM605.5 700H454.5V704H605.5V700ZM603.5 701.997V702H607.5V701.997H603.5Z" fill="url(#paint4_linear_2_300)" mask="url(#path-5-inside-2_2_300)"/>
</g>
<g filter="url(#filter3_bd_2_300)">
<mask id="path-7-inside-3_2_300" fill="white">
<path fill-rule="evenodd" clip-rule="evenodd" d="M683.563 657.351C683.683 657.352 683.804 657.353 683.924 657.353C701.087 657.353 715 643.44 715 626.277C715 609.115 701.087 595.202 683.924 595.202C683.804 595.202 683.683 595.202 683.563 595.204V595.202H675.535C675.825 593.075 675.975 590.904 675.975 588.697C675.975 562.355 654.62 541 628.277 541C601.935 541 580.58 562.355 580.58 588.697C580.58 591.183 580.77 593.624 581.136 596.007C578.868 595.48 576.504 595.202 574.076 595.202C556.913 595.202 543 609.115 543 626.277C543 643.44 556.913 657.353 574.076 657.353C574.197 657.353 574.318 657.352 574.439 657.351L574.437 657.353H683.563V657.351Z"/>
</mask>
<path fill-rule="evenodd" clip-rule="evenodd" d="M683.563 657.351C683.683 657.352 683.804 657.353 683.924 657.353C701.087 657.353 715 643.44 715 626.277C715 609.115 701.087 595.202 683.924 595.202C683.804 595.202 683.683 595.202 683.563 595.204V595.202H675.535C675.825 593.075 675.975 590.904 675.975 588.697C675.975 562.355 654.62 541 628.277 541C601.935 541 580.58 562.355 580.58 588.697C580.58 591.183 580.77 593.624 581.136 596.007C578.868 595.48 576.504 595.202 574.076 595.202C556.913 595.202 543 609.115 543 626.277C543 643.44 556.913 657.353 574.076 657.353C574.197 657.353 574.318 657.352 574.439 657.351L574.437 657.353H683.563V657.351Z" fill="url(#paint5_linear_2_300)" shape-rendering="crispEdges"/>
<path d="M683.563 657.351L683.586 655.351C683.052 655.345 682.537 655.553 682.157 655.929C681.777 656.304 681.563 656.816 681.563 657.351H683.563ZM683.563 595.204H681.563C681.563 595.738 681.777 596.25 682.157 596.626C682.537 597.002 683.051 597.21 683.586 597.204L683.563 595.204ZM683.563 595.202H685.563C685.563 594.097 684.668 593.202 683.563 593.202V595.202ZM675.535 595.202L673.553 594.931C673.475 595.504 673.649 596.082 674.028 596.517C674.408 596.952 674.957 597.202 675.535 597.202V595.202ZM581.136 596.007L580.684 597.955C581.33 598.106 582.009 597.925 582.496 597.474C582.983 597.023 583.214 596.359 583.113 595.703L581.136 596.007ZM574.439 657.351L576.008 658.59C576.486 657.985 576.573 657.16 576.233 656.468C575.893 655.777 575.186 655.342 574.416 655.351L574.439 657.351ZM574.437 657.353L572.867 656.114C572.392 656.715 572.303 657.535 572.637 658.225C572.971 658.915 573.67 659.353 574.437 659.353V657.353ZM683.563 657.353V659.353C684.668 659.353 685.563 658.458 685.563 657.353H683.563ZM683.54 659.351C683.668 659.352 683.796 659.353 683.924 659.353V655.353C683.811 655.353 683.699 655.352 683.586 655.351L683.54 659.351ZM683.924 659.353C702.192 659.353 717 644.544 717 626.277H713C713 642.335 699.982 655.353 683.924 655.353V659.353ZM717 626.277C717 608.01 702.192 593.202 683.924 593.202V597.202C699.982 597.202 713 610.219 713 626.277H717ZM683.924 593.202C683.796 593.202 683.668 593.202 683.54 593.204L683.586 597.204C683.699 597.202 683.811 597.202 683.924 597.202V593.202ZM681.563 595.202V595.204H685.563V595.202H681.563ZM675.535 597.202H683.563V593.202H675.535V597.202ZM677.517 595.472C677.819 593.256 677.975 590.994 677.975 588.697H673.975C673.975 590.813 673.831 592.894 673.553 594.931L677.517 595.472ZM677.975 588.697C677.975 561.25 655.724 539 628.277 539V543C653.515 543 673.975 563.459 673.975 588.697H677.975ZM628.277 539C600.83 539 578.58 561.25 578.58 588.697H582.58C582.58 563.459 603.039 543 628.277 543V539ZM578.58 588.697C578.58 591.285 578.778 593.828 579.16 596.311L583.113 595.703C582.762 593.421 582.58 591.081 582.58 588.697H578.58ZM581.589 594.059C579.173 593.498 576.658 593.202 574.076 593.202V597.202C576.351 597.202 578.563 597.463 580.684 597.955L581.589 594.059ZM574.076 593.202C555.808 593.202 541 608.01 541 626.277H545C545 610.219 558.018 597.202 574.076 597.202V593.202ZM541 626.277C541 644.544 555.808 659.353 574.076 659.353V655.353C558.018 655.353 545 642.335 545 626.277H541ZM574.076 659.353C574.204 659.353 574.333 659.352 574.461 659.351L574.416 655.351C574.303 655.352 574.189 655.353 574.076 655.353V659.353ZM576.007 658.592L576.008 658.59L572.869 656.112L572.867 656.114L576.007 658.592ZM683.563 655.353H574.437V659.353H683.563V655.353ZM681.563 657.351V657.353H685.563V657.351H681.563Z" fill="url(#paint6_linear_2_300)" mask="url(#path-7-inside-3_2_300)"/>
</g>
<defs>
<filter id="filter0_bdd_2_300" x="427.467" y="400.076" width="232.434" height="231.793" filterUnits="userSpaceOnUse" color-interpolation-filters="sRGB">
<feFlood flood-opacity="0" result="BackgroundImageFix"/>
<feGaussianBlur in="BackgroundImageFix" stdDeviation="7"/>
<feComposite in2="SourceAlpha" operator="in" result="effect1_backgroundBlur_2_300"/>
<feColorMatrix in="SourceAlpha" type="matrix" values="0 0 0 0 0 0 0 0 0 0 0 0 0 0 0 0 0 0 127 0" result="hardAlpha"/>
<feOffset dx="-21" dy="15"/>
<feGaussianBlur stdDeviation="25"/>
<feComposite in2="hardAlpha" operator="out"/>
<feColorMatrix type="matrix" values="0 0 0 0 0.113438 0 0 0 0 0.148981 0 0 0 0 0.275 0 0 0 0.25 0"/>
<feBlend mode="normal" in2="effect1_backgroundBlur_2_300" result="effect2_dropShadow_2_300"/>
<feColorMatrix in="SourceAlpha" type="matrix" values="0 0 0 0 0 0 0 0 0 0 0 0 0 0 0 0 0 0 127 0" result="hardAlpha"/>
<feOffset/>
<feGaussianBlur stdDeviation="19"/>
<feComposite in2="hardAlpha" operator="out"/>
<feColorMatrix type="matrix" values="0 0 0 0 0.619608 0 0 0 0 0.423529 0 0 0 0 1 0 0 0 0.4 0"/>
<feBlend mode="normal" in2="effect2_dropShadow_2_300" result="effect3_dropShadow_2_300"/>
<feBlend mode="normal" in="SourceGraphic" in2="effect3_dropShadow_2_300" result="shape"/>
</filter>
<filter id="filter1_f_2_300" x="422" y="597" width="266" height="114" filterUnits="userSpaceOnUse" color-interpolation-filters="sRGB">
<feFlood flood-opacity="0" result="BackgroundImageFix"/>
<feBlend mode="normal" in="SourceGraphic" in2="BackgroundImageFix" result="shape"/>
<feGaussianBlur stdDeviation="7" result="effect1_foregroundBlur_2_300"/>
</filter>
<filter id="filter2_bd_2_300" x="340" y="506" width="338" height="261" filterUnits="userSpaceOnUse" color-interpolation-filters="sRGB">
<feFlood flood-opacity="0" result="BackgroundImageFix"/>
<feGaussianBlur in="BackgroundImageFix" stdDeviation="7"/>
<feComposite in2="SourceAlpha" operator="in" result="effect1_backgroundBlur_2_300"/>
<feColorMatrix in="SourceAlpha" type="matrix" values="0 0 0 0 0 0 0 0 0 0 0 0 0 0 0 0 0 0 127 0" result="hardAlpha"/>
<feOffset dx="-21" dy="15"/>
<feGaussianBlur stdDeviation="25"/>
<feComposite in2="hardAlpha" operator="out"/>
<feColorMatrix type="matrix" values="0 0 0 0 0.113725 0 0 0 0 0.14902 0 0 0 0 0.27451 0 0 0 0.25 0"/>
<feBlend mode="normal" in2="effect1_backgroundBlur_2_300" result="effect2_dropShadow_2_300"/>
<feBlend mode="normal" in="SourceGraphic" in2="effect2_dropShadow_2_300" result="shape"/>
</filter>
<filter id="filter3_bd_2_300" x="472" y="506" width="272" height="216.353" filterUnits="userSpaceOnUse" color-interpolation-filters="sRGB">
<feFlood flood-opacity="0" result="BackgroundImageFix"/>
<feGaussianBlur in="BackgroundImageFix" stdDeviation="7"/>
<feComposite in2="SourceAlpha" operator="in" result="effect1_backgroundBlur_2_300"/>
<feColorMatrix in="SourceAlpha" type="matrix" values="0 0 0 0 0 0 0 0 0 0 0 0 0 0 0 0 0 0 127 0" result="hardAlpha"/>
<feOffset dx="-21" dy="15"/>
<feGaussianBlur stdDeviation="25"/>
<feComposite in2="hardAlpha" operator="out"/>
<feColorMatrix type="matrix" values="0 0 0 0 0.113438 0 0 0 0 0.148981 0 0 0 0 0.275 0 0 0 0.25 0"/>
<feBlend mode="normal" in2="effect1_backgroundBlur_2_300" result="effect2_dropShadow_2_300"/>
<feBlend mode="normal" in="SourceGraphic" in2="effect2_dropShadow_2_300" result="shape"/>
</filter>
<linearGradient id="paint0_linear_2_300" x1="521.067" y1="452.108" x2="580.39" y2="567.44" gradientUnits="userSpaceOnUse">
<stop offset="0.0001" stop-color="#D4C0FF"/>
<stop offset="1" stop-color="#7E2FFF"/>
</linearGradient>
<linearGradient id="paint1_linear_2_300" x1="527.197" y1="388.86" x2="563.703" y2="540.225" gradientUnits="userSpaceOnUse">
<stop stop-color="white"/>
<stop offset="1" stop-color="white" stop-opacity="0"/>
</linearGradient>
<linearGradient id="paint2_linear_2_300" x1="584" y1="487" x2="584" y2="605" gradientUnits="userSpaceOnUse">
<stop stop-color="#FFD600"/>
<stop offset="1" stop-color="#FF7A00"/>
</linearGradient>
<linearGradient id="paint3_linear_2_300" x1="530" y1="489.5" x2="530" y2="724.5" gradientUnits="userSpaceOnUse">
<stop stop-color="white"/>
<stop offset="1" stop-color="white" stop-opacity="0"/>
</linearGradient>
<linearGradient id="paint4_linear_2_300" x1="530" y1="541" x2="530" y2="702" gradientUnits="userSpaceOnUse">
<stop stop-color="white"/>
<stop offset="1" stop-color="white" stop-opacity="0"/>
</linearGradient>
<linearGradient id="paint5_linear_2_300" x1="637" y1="544.5" x2="637" y2="670.5" gradientUnits="userSpaceOnUse">
<stop stop-color="white"/>
<stop offset="1" stop-color="white" stop-opacity="0"/>
</linearGradient>
<linearGradient id="paint6_linear_2_300" x1="629" y1="541" x2="629" y2="657.353" gradientUnits="userSpaceOnUse">
<stop stop-color="white"/>
<stop offset="1" stop-color="white" stop-opacity="0"/>
</linearGradient>
</defs>
</svg>
