<svg width="1127" height="1127" viewBox="0 0 1127 1127" fill="none" xmlns="http://www.w3.org/2000/svg">
<g filter="url(#filter0_f_2_54)">
<circle cx="519.62" cy="530.62" r="76.6203" fill="#FFC701" fill-opacity="0.5"/>
</g>
<circle cx="519.62" cy="533.132" r="73.1083" fill="url(#paint0_linear_2_54)" stroke="url(#paint1_linear_2_54)" stroke-width="2"/>
<mask id="mask0_2_54" style="mask-type:alpha" maskUnits="userSpaceOnUse" x="445" y="500" width="149" height="108">
<path d="M593.729 533.133C593.729 574.061 560.549 607.241 519.62 607.241C478.691 607.241 445.512 574.061 445.512 533.133C445.512 492.204 473.039 501.731 513.968 501.731C554.897 501.731 593.729 492.204 593.729 533.133Z" fill="url(#paint2_linear_2_54)"/>
</mask>
<g mask="url(#mask0_2_54)">
<g filter="url(#filter1_f_2_54)">
<path fill-rule="evenodd" clip-rule="evenodd" d="M632.667 668.788C632.667 698.618 608.486 722.799 578.656 722.799C578.446 722.799 578.237 722.798 578.028 722.796V722.799H388.361L388.363 722.796C388.154 722.799 387.943 722.8 387.733 722.8C357.903 722.8 333.722 698.618 333.722 668.789C333.722 638.959 357.903 614.778 387.733 614.778C413.445 614.778 434.961 632.744 440.41 656.808L458.701 633.618L515.853 614.777H578.028V614.781C578.237 614.778 578.446 614.777 578.656 614.777C608.486 614.777 632.667 638.959 632.667 668.788Z" fill="#E18700"/>
</g>
</g>
<g filter="url(#filter2_bd_2_54)">
<mask id="path-5-inside-1_2_54" fill="white">
<path fill-rule="evenodd" clip-rule="evenodd" d="M644.678 672.997C644.829 672.999 644.981 673 645.133 673C666.69 673 684.166 655.524 684.166 633.967C684.166 612.409 666.69 594.933 645.133 594.933C644.981 594.933 644.829 594.934 644.678 594.936V594.933H634.595C634.959 592.262 635.147 589.535 635.147 586.763C635.147 553.675 608.324 526.852 575.236 526.852C542.147 526.852 515.324 553.675 515.324 586.763C515.324 589.886 515.563 592.952 516.023 595.945C513.174 595.283 510.205 594.933 507.155 594.933C485.597 594.933 468.121 612.409 468.121 633.967C468.121 655.524 485.597 673 507.155 673C507.307 673 507.458 672.999 507.61 672.997L507.608 673H644.678V672.997Z"/>
</mask>
<path fill-rule="evenodd" clip-rule="evenodd" d="M644.678 672.997C644.829 672.999 644.981 673 645.133 673C666.69 673 684.166 655.524 684.166 633.967C684.166 612.409 666.69 594.933 645.133 594.933C644.981 594.933 644.829 594.934 644.678 594.936V594.933H634.595C634.959 592.262 635.147 589.535 635.147 586.763C635.147 553.675 608.324 526.852 575.236 526.852C542.147 526.852 515.324 553.675 515.324 586.763C515.324 589.886 515.563 592.952 516.023 595.945C513.174 595.283 510.205 594.933 507.155 594.933C485.597 594.933 468.121 612.409 468.121 633.967C468.121 655.524 485.597 673 507.155 673C507.307 673 507.458 672.999 507.61 672.997L507.608 673H644.678V672.997Z" fill="url(#paint3_linear_2_54)" shape-rendering="crispEdges"/>
<path d="M644.678 672.997L644.7 670.998C644.166 670.991 643.652 671.199 643.272 671.575C642.892 671.951 642.678 672.463 642.678 672.997H644.678ZM644.678 594.936H642.678C642.678 595.47 642.892 595.983 643.272 596.358C643.652 596.734 644.166 596.942 644.701 596.936L644.678 594.936ZM644.678 594.933H646.678C646.678 593.829 645.782 592.933 644.678 592.933V594.933ZM634.595 594.933L632.613 594.663C632.535 595.236 632.708 595.814 633.088 596.249C633.468 596.684 634.017 596.933 634.595 596.933V594.933ZM516.023 595.945L515.571 597.894C516.217 598.044 516.896 597.863 517.383 597.412C517.87 596.961 518.101 596.297 518 595.641L516.023 595.945ZM507.61 672.997L509.179 674.237C509.657 673.632 509.745 672.807 509.405 672.115C509.065 671.424 508.358 670.989 507.587 670.998L507.61 672.997ZM507.608 673L506.038 671.76C505.563 672.362 505.474 673.182 505.808 673.872C506.142 674.562 506.841 675 507.608 675V673ZM644.678 673V675C645.782 675 646.678 674.105 646.678 673H644.678ZM644.655 674.997C644.814 674.999 644.973 675 645.133 675V671C644.988 671 644.844 670.999 644.7 670.998L644.655 674.997ZM645.133 675C667.795 675 686.166 656.629 686.166 633.967H682.166C682.166 654.42 665.586 671 645.133 671V675ZM686.166 633.967C686.166 611.305 667.795 592.933 645.133 592.933V596.933C665.586 596.933 682.166 613.514 682.166 633.967H686.166ZM645.133 592.933C644.973 592.933 644.814 592.934 644.655 592.936L644.701 596.936C644.844 596.934 644.988 596.933 645.133 596.933V592.933ZM642.678 594.933V594.936H646.678V594.933H642.678ZM634.595 596.933H644.678V592.933H634.595V596.933ZM636.576 595.204C636.953 592.443 637.147 589.625 637.147 586.763H633.147C633.147 589.444 632.965 592.081 632.613 594.663L636.576 595.204ZM637.147 586.763C637.147 552.571 609.428 524.852 575.236 524.852V528.852C607.219 528.852 633.147 554.78 633.147 586.763H637.147ZM575.236 524.852C541.043 524.852 513.324 552.571 513.324 586.763H517.324C517.324 554.78 543.252 528.852 575.236 528.852V524.852ZM513.324 586.763C513.324 589.988 513.571 593.156 514.047 596.249L518 595.641C517.555 592.748 517.324 589.783 517.324 586.763H513.324ZM516.476 593.997C513.479 593.301 510.359 592.933 507.155 592.933V596.933C510.052 596.933 512.869 597.266 515.571 597.894L516.476 593.997ZM507.155 592.933C484.493 592.933 466.121 611.305 466.121 633.967H470.121C470.121 613.514 486.702 596.933 507.155 596.933V592.933ZM466.121 633.967C466.121 656.629 484.493 675 507.155 675V671C486.702 671 470.121 654.42 470.121 633.967H466.121ZM507.155 675C507.314 675 507.473 674.999 507.633 674.997L507.587 670.998C507.443 670.999 507.299 671 507.155 671V675ZM509.177 674.24L509.179 674.237L506.04 671.758L506.038 671.76L509.177 674.24ZM644.678 671H507.608V675H644.678V671ZM642.678 672.997V673H646.678V672.997H642.678Z" fill="url(#paint4_linear_2_54)" mask="url(#path-5-inside-1_2_54)"/>
</g>
<defs>
<filter id="filter0_f_2_54" x="399" y="410" width="241.241" height="241.241" filterUnits="userSpaceOnUse" color-interpolation-filters="sRGB">
<feFlood flood-opacity="0" result="BackgroundImageFix"/>
<feBlend mode="normal" in="SourceGraphic" in2="BackgroundImageFix" result="shape"/>
<feGaussianBlur stdDeviation="22" result="effect1_foregroundBlur_2_54"/>
</filter>
<filter id="filter1_f_2_54" x="319.722" y="600.777" width="326.945" height="136.023" filterUnits="userSpaceOnUse" color-interpolation-filters="sRGB">
<feFlood flood-opacity="0" result="BackgroundImageFix"/>
<feBlend mode="normal" in="SourceGraphic" in2="BackgroundImageFix" result="shape"/>
<feGaussianBlur stdDeviation="7" result="effect1_foregroundBlur_2_54"/>
</filter>
<filter id="filter2_bd_2_54" x="397.121" y="491.852" width="316.045" height="246.148" filterUnits="userSpaceOnUse" color-interpolation-filters="sRGB">
<feFlood flood-opacity="0" result="BackgroundImageFix"/>
<feGaussianBlur in="BackgroundImageFix" stdDeviation="7"/>
<feComposite in2="SourceAlpha" operator="in" result="effect1_backgroundBlur_2_54"/>
<feColorMatrix in="SourceAlpha" type="matrix" values="0 0 0 0 0 0 0 0 0 0 0 0 0 0 0 0 0 0 127 0" result="hardAlpha"/>
<feOffset dx="-21" dy="15"/>
<feGaussianBlur stdDeviation="25"/>
<feComposite in2="hardAlpha" operator="out"/>
<feColorMatrix type="matrix" values="0 0 0 0 0.113438 0 0 0 0 0.148981 0 0 0 0 0.275 0 0 0 0.25 0"/>
<feBlend mode="normal" in2="effect1_backgroundBlur_2_54" result="effect2_dropShadow_2_54"/>
<feBlend mode="normal" in="SourceGraphic" in2="effect2_dropShadow_2_54" result="shape"/>
</filter>
<linearGradient id="paint0_linear_2_54" x1="519.62" y1="459.024" x2="519.62" y2="607.241" gradientUnits="userSpaceOnUse">
<stop stop-color="#FFE600"/>
<stop offset="1" stop-color="#FF7A00"/>
</linearGradient>
<linearGradient id="paint1_linear_2_54" x1="519.62" y1="459.024" x2="519.62" y2="607.241" gradientUnits="userSpaceOnUse">
<stop stop-color="white"/>
<stop offset="1" stop-color="white" stop-opacity="0"/>
</linearGradient>
<linearGradient id="paint2_linear_2_54" x1="519.62" y1="459.024" x2="519.62" y2="607.241" gradientUnits="userSpaceOnUse">
<stop stop-color="#FFD600"/>
<stop offset="1" stop-color="#FF7A00"/>
</linearGradient>
<linearGradient id="paint3_linear_2_54" x1="586.192" y1="531.248" x2="586.192" y2="689.514" gradientUnits="userSpaceOnUse">
<stop stop-color="white"/>
<stop offset="1" stop-color="white" stop-opacity="0"/>
</linearGradient>
<linearGradient id="paint4_linear_2_54" x1="576.144" y1="526.852" x2="576.144" y2="673" gradientUnits="userSpaceOnUse">
<stop stop-color="white"/>
<stop offset="1" stop-color="white" stop-opacity="0"/>
</linearGradient>
</defs>
</svg>
