<svg width="1127" height="1127" viewBox="0 0 1127 1127" fill="none" xmlns="http://www.w3.org/2000/svg">
<g filter="url(#filter0_bdd_2_148)">
<path d="M488.617 613.541L536.431 526.041C536.782 525.399 537.455 525 538.186 525H585.195C586.698 525 587.664 526.596 586.966 527.928L557.034 585.072C556.336 586.404 557.302 588 558.805 588H595.527C597.256 588 598.17 590.045 597.017 591.334L496.581 703.585C495.107 705.233 492.443 703.623 493.217 701.552L523.991 619.2C524.479 617.893 523.513 616.5 522.118 616.5H490.372C488.853 616.5 487.889 614.874 488.617 613.541Z" fill="url(#paint0_linear_2_148)"/>
<path d="M489.494 614.02L537.309 526.52C537.484 526.2 537.821 526 538.186 526H585.195C585.946 526 586.429 526.798 586.08 527.464L556.148 584.608C555.102 586.605 556.55 589 558.805 589H595.527C596.391 589 596.848 590.023 596.272 590.667L495.836 702.919C495.099 703.743 493.767 702.938 494.154 701.902L524.928 619.55C525.66 617.589 524.211 615.5 522.118 615.5H490.372C489.613 615.5 489.13 614.687 489.494 614.02Z" stroke="url(#paint1_linear_2_148)" stroke-width="2"/>
</g>
<g filter="url(#filter1_bd_2_148)">
<mask id="path-3-inside-1_2_148" fill="white">
<path fill-rule="evenodd" clip-rule="evenodd" d="M606.5 575.997C606.666 575.999 606.833 576 607 576C630.748 576 650 556.748 650 533C650 509.252 630.748 490 607 490C606.833 490 606.666 490.001 606.5 490.003V490H595.391C595.793 487.057 596 484.053 596 481C596 444.549 566.451 415 530 415C493.549 415 464 444.549 464 481C464 484.439 464.263 487.817 464.77 491.115C461.631 490.386 458.361 490 455 490C431.252 490 412 509.252 412 533C412 556.748 431.252 576 455 576C455.168 576 455.335 575.999 455.502 575.997L455.5 576H606.5V575.997Z"/>
</mask>
<path fill-rule="evenodd" clip-rule="evenodd" d="M606.5 575.997C606.666 575.999 606.833 576 607 576C630.748 576 650 556.748 650 533C650 509.252 630.748 490 607 490C606.833 490 606.666 490.001 606.5 490.003V490H595.391C595.793 487.057 596 484.053 596 481C596 444.549 566.451 415 530 415C493.549 415 464 444.549 464 481C464 484.439 464.263 487.817 464.77 491.115C461.631 490.386 458.361 490 455 490C431.252 490 412 509.252 412 533C412 556.748 431.252 576 455 576C455.168 576 455.335 575.999 455.502 575.997L455.5 576H606.5V575.997Z" fill="url(#paint2_linear_2_148)" shape-rendering="crispEdges"/>
<path d="M606.5 575.997L606.523 573.997C605.988 573.991 605.474 574.199 605.094 574.575C604.714 574.951 604.5 575.463 604.5 575.997H606.5ZM606.5 490.003H604.5C604.5 490.537 604.714 491.049 605.094 491.425C605.474 491.801 605.988 492.009 606.523 492.003L606.5 490.003ZM606.5 490H608.5C608.5 488.895 607.605 488 606.5 488V490ZM595.391 490L593.41 489.73C593.332 490.302 593.505 490.88 593.885 491.315C594.265 491.75 594.814 492 595.391 492V490ZM464.77 491.115L464.318 493.063C464.964 493.213 465.643 493.033 466.13 492.582C466.617 492.13 466.848 491.467 466.747 490.811L464.77 491.115ZM455.502 575.997L457.072 577.237C457.549 576.632 457.637 575.807 457.297 575.115C456.957 574.423 456.25 573.988 455.479 573.997L455.502 575.997ZM455.5 576L453.931 574.76C453.455 575.362 453.366 576.182 453.7 576.872C454.034 577.562 454.733 578 455.5 578V576ZM606.5 576V578C607.605 578 608.5 577.105 608.5 576H606.5ZM606.477 577.997C606.651 577.999 606.825 578 607 578V574C606.841 574 606.682 573.999 606.523 573.997L606.477 577.997ZM607 578C631.853 578 652 557.853 652 533H648C648 555.644 629.644 574 607 574V578ZM652 533C652 508.147 631.853 488 607 488V492C629.644 492 648 510.356 648 533H652ZM607 488C606.826 488 606.651 488.001 606.477 488.003L606.523 492.003C606.682 492.001 606.841 492 607 492V488ZM604.5 490V490.003H608.5V490H604.5ZM595.391 492H606.5V488H595.391V492ZM597.373 490.27C597.787 487.238 598 484.143 598 481H594C594 483.962 593.799 486.876 593.41 489.73L597.373 490.27ZM598 481C598 443.445 567.555 413 530 413V417C565.346 417 594 445.654 594 481H598ZM530 413C492.445 413 462 443.445 462 481H466C466 445.654 494.654 417 530 417V413ZM462 481C462 484.542 462.271 488.021 462.793 491.419L466.747 490.811C466.255 487.614 466 484.337 466 481H462ZM465.223 489.167C461.937 488.403 458.514 488 455 488V492C458.207 492 461.326 492.368 464.318 493.063L465.223 489.167ZM455 488C430.147 488 410 508.147 410 533H414C414 510.356 432.356 492 455 492V488ZM410 533C410 557.853 430.147 578 455 578V574C432.356 574 414 555.644 414 533H410ZM455 578C455.175 578 455.35 577.999 455.525 577.997L455.479 573.997C455.32 573.999 455.16 574 455 574V578ZM457.069 577.24L457.072 577.237L453.933 574.757L453.931 574.76L457.069 577.24ZM606.5 574H455.5V578H606.5V574ZM604.5 575.997V576H608.5V575.997H604.5Z" fill="url(#paint3_linear_2_148)" mask="url(#path-3-inside-1_2_148)"/>
</g>
<g filter="url(#filter2_bd_2_148)">
<mask id="path-5-inside-2_2_148" fill="white">
<path fill-rule="evenodd" clip-rule="evenodd" d="M684.563 531.351C684.683 531.352 684.804 531.353 684.924 531.353C702.087 531.353 716 517.44 716 500.277C716 483.115 702.087 469.202 684.924 469.202C684.804 469.202 684.683 469.202 684.563 469.204V469.202H676.535C676.825 467.075 676.975 464.904 676.975 462.697C676.975 436.355 655.62 415 629.277 415C602.935 415 581.58 436.355 581.58 462.697C581.58 465.183 581.77 467.624 582.136 470.007C579.868 469.48 577.504 469.202 575.076 469.202C557.913 469.202 544 483.115 544 500.277C544 517.44 557.913 531.353 575.076 531.353C575.197 531.353 575.318 531.352 575.439 531.351L575.437 531.353H684.563V531.351Z"/>
</mask>
<path fill-rule="evenodd" clip-rule="evenodd" d="M684.563 531.351C684.683 531.352 684.804 531.353 684.924 531.353C702.087 531.353 716 517.44 716 500.277C716 483.115 702.087 469.202 684.924 469.202C684.804 469.202 684.683 469.202 684.563 469.204V469.202H676.535C676.825 467.075 676.975 464.904 676.975 462.697C676.975 436.355 655.62 415 629.277 415C602.935 415 581.58 436.355 581.58 462.697C581.58 465.183 581.77 467.624 582.136 470.007C579.868 469.48 577.504 469.202 575.076 469.202C557.913 469.202 544 483.115 544 500.277C544 517.44 557.913 531.353 575.076 531.353C575.197 531.353 575.318 531.352 575.439 531.351L575.437 531.353H684.563V531.351Z" fill="url(#paint4_linear_2_148)" shape-rendering="crispEdges"/>
<path d="M684.563 531.351L684.586 529.351C684.052 529.345 683.537 529.553 683.157 529.929C682.777 530.304 682.563 530.816 682.563 531.351H684.563ZM684.563 469.204H682.563C682.563 469.738 682.777 470.25 683.157 470.626C683.537 471.002 684.051 471.21 684.586 471.204L684.563 469.204ZM684.563 469.202H686.563C686.563 468.097 685.668 467.202 684.563 467.202V469.202ZM676.535 469.202L674.553 468.931C674.475 469.504 674.649 470.082 675.028 470.517C675.408 470.952 675.957 471.202 676.535 471.202V469.202ZM582.136 470.007L581.684 471.955C582.33 472.106 583.009 471.925 583.496 471.474C583.983 471.023 584.214 470.359 584.113 469.703L582.136 470.007ZM575.439 531.351L577.008 532.59C577.486 531.985 577.573 531.16 577.233 530.468C576.893 529.777 576.186 529.342 575.416 529.351L575.439 531.351ZM575.437 531.353L573.867 530.114C573.392 530.715 573.303 531.535 573.637 532.225C573.971 532.915 574.67 533.353 575.437 533.353V531.353ZM684.563 531.353V533.353C685.668 533.353 686.563 532.458 686.563 531.353H684.563ZM684.54 533.351C684.668 533.352 684.796 533.353 684.924 533.353V529.353C684.811 529.353 684.699 529.352 684.586 529.351L684.54 533.351ZM684.924 533.353C703.192 533.353 718 518.544 718 500.277H714C714 516.335 700.982 529.353 684.924 529.353V533.353ZM718 500.277C718 482.01 703.192 467.202 684.924 467.202V471.202C700.982 471.202 714 484.219 714 500.277H718ZM684.924 467.202C684.796 467.202 684.668 467.202 684.54 467.204L684.586 471.204C684.699 471.202 684.811 471.202 684.924 471.202V467.202ZM682.563 469.202V469.204H686.563V469.202H682.563ZM676.535 471.202H684.563V467.202H676.535V471.202ZM678.517 469.472C678.819 467.256 678.975 464.994 678.975 462.697H674.975C674.975 464.813 674.831 466.894 674.553 468.931L678.517 469.472ZM678.975 462.697C678.975 435.25 656.724 413 629.277 413V417C654.515 417 674.975 437.459 674.975 462.697H678.975ZM629.277 413C601.83 413 579.58 435.25 579.58 462.697H583.58C583.58 437.459 604.039 417 629.277 417V413ZM579.58 462.697C579.58 465.285 579.778 467.828 580.16 470.311L584.113 469.703C583.762 467.421 583.58 465.081 583.58 462.697H579.58ZM582.589 468.059C580.173 467.498 577.658 467.202 575.076 467.202V471.202C577.351 471.202 579.563 471.463 581.684 471.955L582.589 468.059ZM575.076 467.202C556.808 467.202 542 482.01 542 500.277H546C546 484.219 559.018 471.202 575.076 471.202V467.202ZM542 500.277C542 518.544 556.808 533.353 575.076 533.353V529.353C559.018 529.353 546 516.335 546 500.277H542ZM575.076 533.353C575.204 533.353 575.333 533.352 575.461 533.351L575.416 529.351C575.303 529.352 575.189 529.353 575.076 529.353V533.353ZM577.007 532.592L577.008 532.59L573.869 530.112L573.867 530.114L577.007 532.592ZM684.563 529.353H575.437V533.353H684.563V529.353ZM682.563 531.351V531.353H686.563V531.351H682.563Z" fill="url(#paint5_linear_2_148)" mask="url(#path-5-inside-2_2_148)"/>
</g>
<defs>
<filter id="filter0_bdd_2_148" x="417.369" y="464" width="241.162" height="305.265" filterUnits="userSpaceOnUse" color-interpolation-filters="sRGB">
<feFlood flood-opacity="0" result="BackgroundImageFix"/>
<feGaussianBlur in="BackgroundImageFix" stdDeviation="7"/>
<feComposite in2="SourceAlpha" operator="in" result="effect1_backgroundBlur_2_148"/>
<feColorMatrix in="SourceAlpha" type="matrix" values="0 0 0 0 0 0 0 0 0 0 0 0 0 0 0 0 0 0 127 0" result="hardAlpha"/>
<feOffset dx="-21" dy="15"/>
<feGaussianBlur stdDeviation="25"/>
<feComposite in2="hardAlpha" operator="out"/>
<feColorMatrix type="matrix" values="0 0 0 0 0.113438 0 0 0 0 0.148981 0 0 0 0 0.275 0 0 0 0.25 0"/>
<feBlend mode="normal" in2="effect1_backgroundBlur_2_148" result="effect2_dropShadow_2_148"/>
<feColorMatrix in="SourceAlpha" type="matrix" values="0 0 0 0 0 0 0 0 0 0 0 0 0 0 0 0 0 0 127 0" result="hardAlpha"/>
<feOffset/>
<feGaussianBlur stdDeviation="30.5"/>
<feComposite in2="hardAlpha" operator="out"/>
<feColorMatrix type="matrix" values="0 0 0 0 1 0 0 0 0 0.721569 0 0 0 0 0.00392157 0 0 0 0.49 0"/>
<feBlend mode="normal" in2="effect2_dropShadow_2_148" result="effect3_dropShadow_2_148"/>
<feBlend mode="normal" in="SourceGraphic" in2="effect3_dropShadow_2_148" result="shape"/>
</filter>
<filter id="filter1_bd_2_148" x="341" y="380" width="338" height="261" filterUnits="userSpaceOnUse" color-interpolation-filters="sRGB">
<feFlood flood-opacity="0" result="BackgroundImageFix"/>
<feGaussianBlur in="BackgroundImageFix" stdDeviation="7"/>
<feComposite in2="SourceAlpha" operator="in" result="effect1_backgroundBlur_2_148"/>
<feColorMatrix in="SourceAlpha" type="matrix" values="0 0 0 0 0 0 0 0 0 0 0 0 0 0 0 0 0 0 127 0" result="hardAlpha"/>
<feOffset dx="-21" dy="15"/>
<feGaussianBlur stdDeviation="25"/>
<feComposite in2="hardAlpha" operator="out"/>
<feColorMatrix type="matrix" values="0 0 0 0 0.113725 0 0 0 0 0.14902 0 0 0 0 0.27451 0 0 0 0.25 0"/>
<feBlend mode="normal" in2="effect1_backgroundBlur_2_148" result="effect2_dropShadow_2_148"/>
<feBlend mode="normal" in="SourceGraphic" in2="effect2_dropShadow_2_148" result="shape"/>
</filter>
<filter id="filter2_bd_2_148" x="473" y="380" width="272" height="216.353" filterUnits="userSpaceOnUse" color-interpolation-filters="sRGB">
<feFlood flood-opacity="0" result="BackgroundImageFix"/>
<feGaussianBlur in="BackgroundImageFix" stdDeviation="7"/>
<feComposite in2="SourceAlpha" operator="in" result="effect1_backgroundBlur_2_148"/>
<feColorMatrix in="SourceAlpha" type="matrix" values="0 0 0 0 0 0 0 0 0 0 0 0 0 0 0 0 0 0 127 0" result="hardAlpha"/>
<feOffset dx="-21" dy="15"/>
<feGaussianBlur stdDeviation="25"/>
<feComposite in2="hardAlpha" operator="out"/>
<feColorMatrix type="matrix" values="0 0 0 0 0.113438 0 0 0 0 0.148981 0 0 0 0 0.275 0 0 0 0.25 0"/>
<feBlend mode="normal" in2="effect1_backgroundBlur_2_148" result="effect2_dropShadow_2_148"/>
<feBlend mode="normal" in="SourceGraphic" in2="effect2_dropShadow_2_148" result="shape"/>
</filter>
<linearGradient id="paint0_linear_2_148" x1="554.5" y1="536" x2="529.5" y2="644.5" gradientUnits="userSpaceOnUse">
<stop stop-color="#FF4D00"/>
<stop offset="1" stop-color="#FFB800"/>
</linearGradient>
<linearGradient id="paint1_linear_2_148" x1="521" y1="643" x2="566.5" y2="545.5" gradientUnits="userSpaceOnUse">
<stop stop-color="white"/>
<stop offset="1" stop-color="white" stop-opacity="0"/>
</linearGradient>
<linearGradient id="paint2_linear_2_148" x1="531" y1="363.5" x2="531" y2="598.5" gradientUnits="userSpaceOnUse">
<stop stop-color="white"/>
<stop offset="1" stop-color="white" stop-opacity="0"/>
</linearGradient>
<linearGradient id="paint3_linear_2_148" x1="531" y1="415" x2="531" y2="576" gradientUnits="userSpaceOnUse">
<stop stop-color="white"/>
<stop offset="1" stop-color="white" stop-opacity="0"/>
</linearGradient>
<linearGradient id="paint4_linear_2_148" x1="638" y1="418.5" x2="638" y2="544.5" gradientUnits="userSpaceOnUse">
<stop stop-color="white"/>
<stop offset="1" stop-color="white" stop-opacity="0"/>
</linearGradient>
<linearGradient id="paint5_linear_2_148" x1="630" y1="415" x2="630" y2="531.353" gradientUnits="userSpaceOnUse">
<stop stop-color="white"/>
<stop offset="1" stop-color="white" stop-opacity="0"/>
</linearGradient>
</defs>
</svg>
